<?xml version="1.0"?>
<svg xmlns="http://www.w3.org/2000/svg" id="Capa_1" enable-background="new 0 0 512 512" height="512px" viewBox="0 0 512 512" width="512px"><g><g><path d="m458.386 386.686c-34.306-22.805-82.037-33.803-125.936-45.403v-2.474c19.002-11.815 35.077-27.892 46.874-46.885h66.051v-57.312h15.625v-110h-60v-36.779c0-45.888-37.025-83.22-82.535-83.22h-103.317v28.012l-64.932-28.012h-39.216c0 20.653.001 112.79.001 119.999h-60.001v110h61.21c5.71 43.943 31.251 81.758 67.341 104.197v2.474c-87.765 23.192-179.551 41.962-179.551 151.104v15h512v-15c0-47.143-17.537-81.719-53.614-105.701zm-248.836-33.688c29.111 9.851 62.001 10.456 92.9 0v12.815c0 25.538-20.838 46.314-46.45 46.314s-46.45-20.776-46.45-46.311zm205.825-91.074h-21.897c2.953-8.763 5.087-17.896 6.311-27.312h15.586zm15.625-57.312h-30c0-6.266 0-43.771 0-50h30zm-286.98-169.999 101.128 43.627v-43.627h73.316c28.968 0 52.535 23.874 52.535 53.22v36.78h-177.464c-28.942 0-52.492-23.831-52.533-53.141v-1.86h-.002v-34.999zm-63.02 119.999h30v50h-30zm60 61.29.001-80.372c14.282 11.914 32.593 19.083 52.534 19.083h177.465l-.001 61.286c0 16.361-3.459 31.929-9.674 46.025h-101.95v30h82.661c-21.083 23.714-51.838 38.688-86.036 38.688-63.411 0-115-51.46-115-114.71zm-110.259 261.485c3.044-29.194 15.567-49.82 39.481-65.718 28.928-19.23 73.676-30.034 109.617-39.441 3.277 39.087 36.171 69.899 76.16 69.899s72.883-30.812 76.16-69.9c38.008 9.974 81.227 20.57 109.617 39.442 23.914 15.897 36.438 36.523 39.482 65.718z" data-original="#000000" class="active-path" data-old_color="#000000" fill="#FFFFFF"/></g></g> </svg>
